<?xml version="1.0" encoding="UTF-8"?>
<svg xmlns="http://www.w3.org/2000/svg" viewBox="0 0 160 160">
  <defs>
    <style>
      .cls-1 {
        fill: #29abe2;
      }

      .cls-2 {
        fill: #0071bc;
      }

      .cls-3 {
        fill: #fff;
      }

      .cls-4, .cls-5 {
        fill: none;
        stroke: #0071bc;
        stroke-miterlimit: 10;
        stroke-width: 3px;
      }

      .cls-5 {
        stroke-linecap: square;
      }
    </style>
  </defs>
  <g id="Layer_1" data-name="Layer 1">
    <rect class="cls-1" width="160" height="160"/>
    <g>
      <path class="cls-2" d="M22.7,117.97v-3.11l2.54-.51v-16.28h-4.05l-.21,2.73h-3.97v-6.8h21.8v6.8h-4.02l-.2-2.73h-4.08v16.28l2.54.51v3.11h-10.34Z"/>
      <path class="cls-2" d="M47.76,118.31c-1.72,0-3.23-.38-4.51-1.13-1.28-.75-2.28-1.78-2.99-3.1-.71-1.31-1.06-2.8-1.06-4.47v-.64c0-1.78.32-3.36.97-4.74.65-1.38,1.58-2.47,2.8-3.25s2.68-1.17,4.38-1.16c1.61,0,2.97.31,4.08.94,1.11.63,1.95,1.54,2.53,2.74.58,1.2.86,2.66.86,4.39v2.8h-10.16l-.02.1c.07.68.26,1.28.57,1.8s.75.94,1.3,1.24,1.23.46,2.03.46,1.61-.1,2.35-.3,1.49-.5,2.25-.92l1.32,3.21c-.77.58-1.72,1.06-2.86,1.45-1.14.38-2.42.58-3.84.58ZM44.68,107.31h5.27v-.43c0-.68-.08-1.26-.24-1.74s-.42-.84-.79-1.09-.85-.38-1.46-.38-1.12.15-1.51.46-.69.73-.9,1.27c-.2.54-.34,1.15-.42,1.83l.05.08Z"/>
      <path class="cls-2" d="M56.72,117.97v-3.11l2.21-.51v-10.55l-2.52-.51v-3.13h7.46l.21,2.52c.59-.9,1.32-1.6,2.19-2.1.87-.5,1.86-.75,2.96-.75,1.71,0,3.06.57,4.05,1.7s1.48,2.91,1.48,5.35v7.48l2.19.51v3.11h-9.37v-3.11l1.89-.51v-7.48c0-1.08-.22-1.84-.65-2.3s-1.06-.68-1.89-.68c-.61,0-1.15.12-1.61.37-.46.25-.84.6-1.14,1.06v9.02l1.71.51v3.11h-9.19Z"/>
      <path class="cls-2" d="M85.99,125.16c-.92,0-1.96-.12-3.12-.35-1.16-.23-2.18-.57-3.05-1l.91-3.69c.81.34,1.65.6,2.53.79.87.19,1.68.28,2.41.28,1.24,0,2.15-.34,2.73-1.03.58-.69.87-1.63.87-2.84v-1c-.52.64-1.12,1.13-1.8,1.47-.69.35-1.47.52-2.36.52-1.45,0-2.69-.36-3.73-1.09-1.04-.73-1.83-1.76-2.37-3.09-.54-1.33-.82-2.87-.82-4.63v-.35c0-1.87.27-3.5.82-4.9.54-1.4,1.32-2.49,2.33-3.27s2.22-1.17,3.64-1.17c1.04,0,1.94.23,2.69.68.75.45,1.39,1.08,1.92,1.89l.35-2.24h4.61v17.21c0,1.57-.34,2.94-1.03,4.11-.69,1.17-1.67,2.08-2.95,2.73-1.28.65-2.8.97-4.57.97ZM86.62,114.24c.58,0,1.1-.11,1.55-.33.45-.22.82-.54,1.1-.96v-7.61c-.29-.47-.65-.83-1.1-1.09s-.96-.38-1.53-.38c-.76,0-1.37.22-1.84.66-.47.44-.81,1.05-1.02,1.84s-.31,1.71-.31,2.77v.35c0,1.48.24,2.64.72,3.48.48.84,1.29,1.26,2.45,1.26ZM93.91,103.87l-2.34-3.72h5.04v3.15l-2.7.58Z"/>
      <path class="cls-2" d="M97.9,117.97v-3.11l2.21-.51v-10.55l-2.52-.51v-3.13h7.79v14.19l2.21.51v3.11h-9.68ZM99.94,96.58v-4.3h5.43v4.3h-5.43Z"/>
      <path class="cls-2" d="M108.7,117.97v-3.11l2.22-.51v-18.43l-2.55-.51v-3.13h7.82v22.06l2.21.51v3.11h-9.7Z"/>
      <path class="cls-2" d="M119.45,117.97v-3.11l2.22-.51v-18.43l-2.55-.51v-3.13h7.82v22.06l2.21.51v3.11h-9.7Z"/>
      <path class="cls-2" d="M17.8,147v-3.03l2.15-.5v-10.23h-2.53v-3.57h2.53v-1.84c0-1.97.58-3.49,1.74-4.55,1.16-1.06,2.79-1.59,4.88-1.59.52,0,1.08.04,1.68.13.6.09,1.09.18,1.47.29l-.42,3.79c-.28-.07-.58-.13-.91-.18-.33-.04-.67-.06-1.02-.06-.78,0-1.36.19-1.74.56-.38.37-.57.91-.57,1.62v1.84h3.97v3.57h-3.97v10.23l3.09.5v3.03h-10.36Z"/>
      <path class="cls-2" d="M35.68,154c-.44,0-.89-.04-1.37-.11-.48-.08-.94-.18-1.4-.3l.59-3.71c.21.04.43.08.65.1.22.03.43.04.63.04.67,0,1.26-.15,1.77-.46.51-.3.86-.75,1.05-1.35l.27-.85-5.68-14.31-2.23-.32v-3.04h9.77v3.04l-2.13.32,2.53,7.35.19.56h.1l2.99-7.94-2.03-.29v-3.04h9v3.04l-2,.29-6.55,16.55c-.31.79-.72,1.52-1.23,2.19-.51.67-1.17,1.21-1.96,1.62-.8.41-1.78.62-2.95.62Z"/>
      <path class="cls-2" d="M52.08,147v-3.03l2.13-.5v-10.26l-2.43-.5v-3.04h7.24l.16,2.13.03.42c.41-.97.91-1.69,1.5-2.16.6-.47,1.33-.7,2.21-.7.26,0,.55.02.87.06.33.04.63.11.92.19l-.53,4.71-2.35-.11c-.62-.03-1.11.05-1.47.26-.36.2-.7.51-1.02.93v8.08l2.15.5v3.03h-9.4Z"/>
      <path class="cls-2" d="M66.08,147v-3.03l2.15-.5v-10.26l-2.45-.5v-3.04h7.57v13.8l2.15.5v3.03h-9.41ZM68.07,126.21v-4.18h5.28v4.18h-5.28Z"/>
      <path class="cls-2" d="M77.34,147v-3.03l2.13-.5v-10.26l-2.43-.5v-3.04h7.24l.16,2.13.03.42c.41-.97.91-1.69,1.5-2.16.6-.47,1.33-.7,2.21-.7.26,0,.55.02.87.06.32.04.63.11.92.19l-.53,4.71-2.35-.11c-.62-.03-1.11.05-1.47.26-.36.2-.7.51-1.02.93v8.08l2.15.5v3.03h-9.4Z"/>
      <path class="cls-2" d="M99.03,147v-3.03l2.48-.56v-16.1l-2.48-.58v-3.04h10.57c2.09,0,3.94.49,5.54,1.46,1.6.98,2.86,2.33,3.76,4.05.91,1.72,1.36,3.71,1.36,5.95v.4c0,2.23-.45,4.21-1.34,5.93-.9,1.72-2.15,3.07-3.75,4.05-1.6.98-3.45,1.46-5.54,1.46h-10.6ZM106.63,143.11h2.72c1.25,0,2.3-.32,3.15-.96.85-.64,1.49-1.53,1.94-2.67.44-1.14.66-2.45.66-3.93v-.42c0-1.49-.22-2.81-.66-3.94-.44-1.13-1.09-2.01-1.94-2.65-.85-.63-1.9-.95-3.15-.95h-2.72v15.51Z"/>
      <path class="cls-2" d="M122.19,147v-3.03l2.47-.5v-16.25l-2.47-.5v-3.04h9.88v3.04l-2.29.5v16.25l2.29.5v3.03h-9.88ZM128.57,141.59l-2.63-3.01,11.51-11.62.03-.03-2.46-.19v-3.04h10.2v3.04l-2.19.45-14.46,14.41ZM135.51,147v-3.03l2.26-.19h.02l-5.76-7.92,3.49-3.28,8.21,11,2.34.4v3.03h-10.55Z"/>
    </g>
    <g>
      <path class="cls-3" d="M20.7,115.97v-3.11l2.54-.51v-16.28h-4.05l-.21,2.73h-3.97v-6.8h21.8v6.8h-4.02l-.2-2.73h-4.08v16.28l2.54.51v3.11h-10.34Z"/>
      <path class="cls-3" d="M45.76,116.31c-1.72,0-3.23-.38-4.51-1.13-1.28-.75-2.28-1.78-2.99-3.1-.71-1.31-1.06-2.8-1.06-4.47v-.64c0-1.78.32-3.36.97-4.74.65-1.38,1.58-2.47,2.8-3.25,1.22-.78,2.68-1.17,4.38-1.16,1.61,0,2.97.31,4.08.94s1.95,1.54,2.53,2.74c.58,1.2.86,2.66.86,4.39v2.8h-10.16l-.02.1c.07.68.26,1.28.57,1.8.31.52.75.94,1.3,1.24.55.31,1.23.46,2.03.46s1.61-.1,2.35-.3,1.49-.5,2.25-.92l1.32,3.21c-.77.58-1.72,1.06-2.86,1.45-1.14.38-2.42.58-3.84.58ZM42.68,105.31h5.27v-.43c0-.68-.08-1.26-.24-1.74s-.42-.84-.79-1.09-.85-.38-1.46-.38-1.12.15-1.51.46-.69.73-.9,1.27c-.2.54-.34,1.15-.42,1.83l.05.08Z"/>
      <path class="cls-3" d="M54.72,115.97v-3.11l2.21-.51v-10.55l-2.52-.51v-3.13h7.46l.21,2.52c.59-.9,1.32-1.6,2.19-2.1.87-.5,1.86-.75,2.96-.75,1.71,0,3.06.57,4.05,1.7.99,1.13,1.48,2.91,1.48,5.35v7.48l2.19.51v3.11h-9.37v-3.11l1.89-.51v-7.48c0-1.08-.22-1.84-.65-2.3s-1.06-.68-1.89-.68c-.61,0-1.15.12-1.61.37-.46.25-.84.6-1.14,1.06v9.02l1.71.51v3.11h-9.19Z"/>
      <path class="cls-3" d="M83.99,123.16c-.92,0-1.96-.12-3.12-.35-1.16-.23-2.18-.57-3.05-1l.91-3.69c.81.34,1.65.6,2.53.79.87.19,1.68.28,2.41.28,1.24,0,2.15-.34,2.73-1.03.58-.69.87-1.63.87-2.84v-1c-.52.64-1.12,1.13-1.8,1.47-.69.35-1.47.52-2.36.52-1.45,0-2.69-.36-3.73-1.09-1.04-.73-1.83-1.76-2.37-3.09-.54-1.33-.82-2.87-.82-4.63v-.35c0-1.87.27-3.5.82-4.9.54-1.4,1.32-2.49,2.33-3.27s2.22-1.17,3.64-1.17c1.04,0,1.94.23,2.69.68.75.45,1.39,1.08,1.92,1.89l.35-2.24h4.61v17.21c0,1.57-.34,2.94-1.03,4.11-.69,1.17-1.67,2.08-2.95,2.73-1.28.65-2.8.97-4.57.97ZM84.62,112.24c.58,0,1.1-.11,1.55-.33.45-.22.82-.54,1.1-.96v-7.61c-.29-.47-.65-.83-1.1-1.09-.45-.25-.96-.38-1.53-.38-.76,0-1.37.22-1.84.66-.47.44-.81,1.05-1.02,1.84s-.31,1.71-.31,2.77v.35c0,1.48.24,2.64.72,3.48.48.84,1.29,1.26,2.45,1.26ZM91.91,101.87l-2.34-3.72h5.04v3.15l-2.7.58Z"/>
      <path class="cls-3" d="M95.9,115.97v-3.11l2.21-.51v-10.55l-2.52-.51v-3.13h7.79v14.19l2.21.51v3.11h-9.68ZM97.94,94.58v-4.3h5.43v4.3h-5.43Z"/>
      <path class="cls-3" d="M106.7,115.97v-3.11l2.22-.51v-18.43l-2.55-.51v-3.13h7.82v22.06l2.21.51v3.11h-9.7Z"/>
      <path class="cls-3" d="M117.45,115.97v-3.11l2.22-.51v-18.43l-2.55-.51v-3.13h7.82v22.06l2.21.51v3.11h-9.7Z"/>
      <path class="cls-3" d="M15.8,145v-3.03l2.15-.5v-10.23h-2.53v-3.57h2.53v-1.84c0-1.97.58-3.49,1.74-4.55,1.16-1.06,2.79-1.59,4.88-1.59.52,0,1.08.04,1.68.13.6.09,1.09.18,1.47.29l-.42,3.79c-.28-.07-.58-.13-.91-.18-.33-.04-.67-.06-1.02-.06-.78,0-1.36.19-1.74.56-.38.37-.57.91-.57,1.62v1.84h3.97v3.57h-3.97v10.23l3.09.5v3.03h-10.36Z"/>
      <path class="cls-3" d="M33.68,152c-.44,0-.89-.04-1.37-.11-.48-.08-.94-.18-1.4-.3l.59-3.71c.21.04.43.08.65.1.22.03.43.04.63.04.67,0,1.26-.15,1.77-.46.51-.3.86-.75,1.05-1.35l.27-.85-5.68-14.31-2.23-.32v-3.04h9.77v3.04l-2.13.32,2.53,7.35.19.56h.1l2.99-7.94-2.03-.29v-3.04h9v3.04l-2,.29-6.55,16.55c-.31.79-.72,1.52-1.23,2.19-.51.67-1.17,1.21-1.96,1.62-.8.41-1.78.62-2.95.62Z"/>
      <path class="cls-3" d="M50.08,145v-3.03l2.13-.5v-10.26l-2.43-.5v-3.04h7.24l.16,2.13.03.42c.41-.97.91-1.69,1.5-2.16.6-.47,1.33-.7,2.21-.7.26,0,.55.02.87.06.33.04.63.11.92.19l-.53,4.71-2.35-.11c-.62-.03-1.11.05-1.47.26-.36.2-.7.51-1.02.93v8.08l2.15.5v3.03h-9.4Z"/>
      <path class="cls-3" d="M64.08,145v-3.03l2.15-.5v-10.26l-2.45-.5v-3.04h7.57v13.8l2.15.5v3.03h-9.41ZM66.07,124.21v-4.18h5.28v4.18h-5.28Z"/>
      <path class="cls-3" d="M75.34,145v-3.03l2.13-.5v-10.26l-2.43-.5v-3.04h7.24l.16,2.13.03.42c.41-.97.91-1.69,1.5-2.16.6-.47,1.33-.7,2.21-.7.26,0,.55.02.87.06.32.04.63.11.92.19l-.53,4.71-2.35-.11c-.62-.03-1.11.05-1.47.26-.36.2-.7.51-1.02.93v8.08l2.15.5v3.03h-9.4Z"/>
      <path class="cls-3" d="M97.03,145v-3.03l2.48-.56v-16.1l-2.48-.58v-3.04h10.57c2.09,0,3.94.49,5.54,1.46,1.6.98,2.86,2.33,3.76,4.05.91,1.72,1.36,3.71,1.36,5.95v.4c0,2.23-.45,4.21-1.34,5.93-.9,1.72-2.15,3.07-3.75,4.05-1.6.98-3.45,1.46-5.54,1.46h-10.6ZM104.63,141.11h2.72c1.25,0,2.3-.32,3.15-.96.85-.64,1.49-1.53,1.94-2.67.44-1.14.66-2.45.66-3.93v-.42c0-1.49-.22-2.81-.66-3.94-.44-1.13-1.09-2.01-1.94-2.65-.85-.63-1.9-.95-3.15-.95h-2.72v15.51Z"/>
      <path class="cls-3" d="M120.19,145v-3.03l2.47-.5v-16.25l-2.47-.5v-3.04h9.88v3.04l-2.29.5v16.25l2.29.5v3.03h-9.88ZM126.57,139.59l-2.63-3.01,11.51-11.62.03-.03-2.46-.19v-3.04h10.2v3.04l-2.19.45-14.46,14.41ZM133.51,145v-3.03l2.26-.19h.02l-5.76-7.92,3.49-3.28,8.21,11,2.34.4v3.03h-10.55Z"/>
    </g>
  </g>
  <g id="Layer_2" data-name="Layer 2">
    <path class="cls-4" d="M75,23c-5.06,19.29-10.94,39.71-16,59l-39.5-10.21"/>
    <polyline class="cls-5" points="32 27.3 46.05 31 49.75 15.82"/>
    <g>
      <path class="cls-3" d="M59.08,81.64l-41.58-10.95,12.55-47.66,17.25-9.65,27.82,7.32-16.04,60.92ZM21.16,68.56l35.78,9.42,14.51-55.12-23.75-6.25-15.08,8.43-11.46,43.52Z"/>
      <polygon class="cls-3" points="45.94 30.32 31 26.39 31.76 23.49 43.8 26.66 46.85 15.05 49.75 15.82 45.94 30.32"/>
      <rect class="cls-3" x="45.79" y="28.47" width="3" height="29.67" transform="translate(-6.63 78.01) rotate(-75.25)"/>
      <rect class="cls-3" x="44.28" y="33.75" width="3" height="29.67" transform="translate(-12.85 80.49) rotate(-75.25)"/>
      <rect class="cls-3" x="42.78" y="39.03" width="3" height="29.67" transform="translate(-19.08 82.97) rotate(-75.25)"/>
      <rect class="cls-3" x="41.28" y="44.3" width="3" height="29.67" transform="translate(-25.3 85.45) rotate(-75.25)"/>
      <rect class="cls-3" x="48.91" y="60.87" width="3" height="11.89" transform="translate(-27.04 98.55) rotate(-75.25)"/>
      <rect class="cls-3" x="57.64" y="19.05" width="3" height="15.39" transform="translate(18.22 77.13) rotate(-75.25)"/>
      <rect class="cls-3" x="56.19" y="24.35" width="3" height="15.39" transform="translate(12.02 79.68) rotate(-75.25)"/>
    </g>
  </g>
</svg>