<?xml version="1.0" encoding="UTF-8"?>
<svg xmlns="http://www.w3.org/2000/svg" version="1.1" viewBox="0 0 160 160">
  <!-- Generator: Adobe Illustrator 29.8.2, SVG Export Plug-In . SVG Version: 2.1.1 Build 3)  -->
  <defs>
    <style>
      .st0 {
        fill: #29abe2;
      }

      .st1 {
        fill: #0071bc;
      }

      .st2 {
        fill: #fff;
      }

      .st3, .st4 {
        fill: none;
        stroke: #0071bc;
        stroke-miterlimit: 10;
        stroke-width: 3px;
      }

      .st4 {
        stroke-linecap: square;
      }
    </style>
  </defs>
  <g id="Layer_1">
    <rect class="st0" width="160" height="160"/>
    <g>
      <path class="st1" d="M22.7,118v-3.1l2.5-.5v-16.3h-4.1l-.2,2.7h-4v-6.8h21.8v6.8h-4l-.2-2.7h-4.1v16.3l2.5.5v3.1h-10.3Z"/>
      <path class="st1" d="M47.8,118.3c-1.7,0-3.2-.4-4.5-1.1-1.3-.8-2.3-1.8-3-3.1-.7-1.3-1.1-2.8-1.1-4.5v-.6c0-1.8.3-3.4,1-4.7.6-1.4,1.6-2.5,2.8-3.3s2.7-1.2,4.4-1.2c1.6,0,3,.3,4.1.9,1.1.6,2,1.5,2.5,2.7.6,1.2.9,2.7.9,4.4v2.8h-10.2c0,.8.3,1.4.6,1.9s.7.9,1.3,1.2,1.2.5,2,.5,1.6,0,2.3-.3,1.5-.5,2.2-.9l1.3,3.2c-.8.6-1.7,1.1-2.9,1.4-1.1.4-2.4.6-3.8.6ZM44.7,107.3h5.3v-.4c0-.7,0-1.3-.2-1.7s-.4-.8-.8-1.1-.9-.4-1.5-.4-1.1.2-1.5.5-.7.7-.9,1.3c-.2.5-.3,1.1-.4,1.8h0Z"/>
      <path class="st1" d="M56.7,118v-3.1l2.2-.5v-10.6l-2.5-.5v-3.1h7.5l.2,2.5c.6-.9,1.3-1.6,2.2-2.1.9-.5,1.9-.7,3-.7,1.7,0,3.1.6,4.1,1.7s1.5,2.9,1.5,5.4v7.5l2.2.5v3.1h-9.4v-3.1l1.9-.5v-7.5c0-1.1-.2-1.8-.7-2.3s-1.1-.7-1.9-.7-1.1.1-1.6.4c-.5.2-.8.6-1.1,1.1v9l1.7.5v3.1h-9.2Z"/>
      <path class="st1" d="M86,125.2c-.9,0-2-.1-3.1-.3-1.2-.2-2.2-.6-3.1-1l.9-3.7c.8.3,1.7.6,2.5.8.9.2,1.7.3,2.4.3,1.2,0,2.2-.3,2.7-1,.6-.7.9-1.6.9-2.8v-1c-.5.6-1.1,1.1-1.8,1.5-.7.3-1.5.5-2.4.5-1.4,0-2.7-.4-3.7-1.1-1-.7-1.8-1.8-2.4-3.1-.5-1.3-.8-2.9-.8-4.6v-.3c0-1.9.3-3.5.8-4.9.5-1.4,1.3-2.5,2.3-3.3s2.2-1.2,3.6-1.2,1.9.2,2.7.7c.8.5,1.4,1.1,1.9,1.9l.3-2.2h4.6v17.2c0,1.6-.3,2.9-1,4.1-.7,1.2-1.7,2.1-2.9,2.7-1.3.6-2.8,1-4.6,1ZM86.6,114.2c.6,0,1.1-.1,1.5-.3.5-.2.8-.5,1.1-1v-7.6c-.3-.5-.7-.8-1.1-1.1s-1-.4-1.5-.4-1.4.2-1.8.7c-.5.4-.8,1.1-1,1.8s-.3,1.7-.3,2.8v.3c0,1.5.2,2.6.7,3.5.5.8,1.3,1.3,2.4,1.3ZM93.9,103.9l-2.3-3.7h5v3.1l-2.7.6Z"/>
      <path class="st1" d="M97.9,118v-3.1l2.2-.5v-10.6l-2.5-.5v-3.1h7.8v14.2l2.2.5v3.1h-9.7ZM99.9,96.6v-4.3h5.4v4.3h-5.4Z"/>
      <path class="st1" d="M108.7,118v-3.1l2.2-.5v-18.4l-2.6-.5v-3.1h7.8v22.1l2.2.5v3.1h-9.7Z"/>
      <path class="st1" d="M119.5,118v-3.1l2.2-.5v-18.4l-2.6-.5v-3.1h7.8v22.1l2.2.5v3.1h-9.7Z"/>
      <path class="st1" d="M17.8,147v-3l2.1-.5v-10.2h-2.5v-3.6h2.5v-1.8c0-2,.6-3.5,1.7-4.6,1.2-1.1,2.8-1.6,4.9-1.6s1.1,0,1.7.1c.6,0,1.1.2,1.5.3l-.4,3.8c-.3,0-.6-.1-.9-.2-.3,0-.7,0-1,0-.8,0-1.4.2-1.7.6-.4.4-.6.9-.6,1.6v1.8h4v3.6h-4v10.2l3.1.5v3h-10.4Z"/>
      <path class="st1" d="M35.7,154c-.4,0-.9,0-1.4-.1-.5,0-.9-.2-1.4-.3l.6-3.7c.2,0,.4,0,.6.1.2,0,.4,0,.6,0,.7,0,1.3-.2,1.8-.5.5-.3.9-.8,1-1.4l.3-.8-5.7-14.3-2.2-.3v-3h9.8v3l-2.1.3,2.5,7.3.2.6h0l3-7.9-2-.3v-3h9v3l-2,.3-6.5,16.6c-.3.8-.7,1.5-1.2,2.2-.5.7-1.2,1.2-2,1.6-.8.4-1.8.6-3,.6Z"/>
      <path class="st1" d="M52.1,147v-3l2.1-.5v-10.3l-2.4-.5v-3h7.2l.2,2.1v.4c.4-1,.9-1.7,1.5-2.2.6-.5,1.3-.7,2.2-.7s.5,0,.9,0c.3,0,.6.1.9.2l-.5,4.7h-2.4c-.6-.1-1.1,0-1.5.1-.4.2-.7.5-1,.9v8.1l2.1.5v3h-9.4Z"/>
      <path class="st1" d="M66.1,147v-3l2.1-.5v-10.3l-2.4-.5v-3h7.6v13.8l2.1.5v3h-9.4ZM68.1,126.2v-4.2h5.3v4.2h-5.3Z"/>
      <path class="st1" d="M77.3,147v-3l2.1-.5v-10.3l-2.4-.5v-3h7.2l.2,2.1v.4c.4-1,.9-1.7,1.5-2.2.6-.5,1.3-.7,2.2-.7s.5,0,.9,0c.3,0,.6.1.9.2l-.5,4.7h-2.4c-.6-.1-1.1,0-1.5.1-.4.2-.7.5-1,.9v8.1l2.1.5v3h-9.4Z"/>
      <path class="st1" d="M99,147v-3l2.5-.6v-16.1l-2.5-.6v-3h10.6c2.1,0,3.9.5,5.5,1.5,1.6,1,2.9,2.3,3.8,4.1.9,1.7,1.4,3.7,1.4,5.9v.4c0,2.2-.4,4.2-1.3,5.9-.9,1.7-2.1,3.1-3.7,4.1-1.6,1-3.4,1.5-5.5,1.5h-10.6ZM106.6,143.1h2.7c1.2,0,2.3-.3,3.1-1,.8-.6,1.5-1.5,1.9-2.7.4-1.1.7-2.4.7-3.9v-.4c0-1.5-.2-2.8-.7-3.9-.4-1.1-1.1-2-1.9-2.7-.8-.6-1.9-1-3.1-1h-2.7v15.5Z"/>
      <path class="st1" d="M122.2,147v-3l2.5-.5v-16.2l-2.5-.5v-3h9.9v3l-2.3.5v16.2l2.3.5v3h-9.9ZM128.6,141.6l-2.6-3,11.5-11.6h0s-2.5-.2-2.5-.2v-3h10.2v3l-2.2.4-14.5,14.4ZM135.5,147v-3l2.3-.2h0l-5.8-7.9,3.5-3.3,8.2,11,2.3.4v3h-10.5Z"/>
    </g>
    <g>
      <path class="st2" d="M20.7,116v-3.1l2.5-.5v-16.3h-4.1l-.2,2.7h-4v-6.8h21.8v6.8h-4l-.2-2.7h-4.1v16.3l2.5.5v3.1h-10.3Z"/>
      <path class="st2" d="M45.8,116.3c-1.7,0-3.2-.4-4.5-1.1-1.3-.8-2.3-1.8-3-3.1-.7-1.3-1.1-2.8-1.1-4.5v-.6c0-1.8.3-3.4,1-4.7.6-1.4,1.6-2.5,2.8-3.3,1.2-.8,2.7-1.2,4.4-1.2,1.6,0,3,.3,4.1.9s2,1.5,2.5,2.7c.6,1.2.9,2.7.9,4.4v2.8h-10.2c0,.8.3,1.4.6,1.9.3.5.7.9,1.3,1.2.6.3,1.2.5,2,.5s1.6,0,2.3-.3,1.5-.5,2.2-.9l1.3,3.2c-.8.6-1.7,1.1-2.9,1.4-1.1.4-2.4.6-3.8.6ZM42.7,105.3h5.3v-.4c0-.7,0-1.3-.2-1.7s-.4-.8-.8-1.1-.9-.4-1.5-.4-1.1.2-1.5.5-.7.7-.9,1.3c-.2.5-.3,1.1-.4,1.8h0Z"/>
      <path class="st2" d="M54.7,116v-3.1l2.2-.5v-10.6l-2.5-.5v-3.1h7.5l.2,2.5c.6-.9,1.3-1.6,2.2-2.1.9-.5,1.9-.7,3-.7,1.7,0,3.1.6,4.1,1.7,1,1.1,1.5,2.9,1.5,5.4v7.5l2.2.5v3.1h-9.4v-3.1l1.9-.5v-7.5c0-1.1-.2-1.8-.7-2.3s-1.1-.7-1.9-.7-1.1.1-1.6.4c-.5.2-.8.6-1.1,1.1v9l1.7.5v3.1h-9.2Z"/>
      <path class="st2" d="M84,123.2c-.9,0-2-.1-3.1-.3-1.2-.2-2.2-.6-3.1-1l.9-3.7c.8.3,1.7.6,2.5.8.9.2,1.7.3,2.4.3,1.2,0,2.2-.3,2.7-1,.6-.7.9-1.6.9-2.8v-1c-.5.6-1.1,1.1-1.8,1.5-.7.3-1.5.5-2.4.5-1.4,0-2.7-.4-3.7-1.1-1-.7-1.8-1.8-2.4-3.1-.5-1.3-.8-2.9-.8-4.6v-.3c0-1.9.3-3.5.8-4.9.5-1.4,1.3-2.5,2.3-3.3s2.2-1.2,3.6-1.2,1.9.2,2.7.7c.8.5,1.4,1.1,1.9,1.9l.3-2.2h4.6v17.2c0,1.6-.3,2.9-1,4.1-.7,1.2-1.7,2.1-2.9,2.7-1.3.6-2.8,1-4.6,1ZM84.6,112.2c.6,0,1.1-.1,1.5-.3.5-.2.8-.5,1.1-1v-7.6c-.3-.5-.7-.8-1.1-1.1-.5-.3-1-.4-1.5-.4s-1.4.2-1.8.7c-.5.4-.8,1.1-1,1.8s-.3,1.7-.3,2.8v.3c0,1.5.2,2.6.7,3.5.5.8,1.3,1.3,2.4,1.3ZM91.9,101.9l-2.3-3.7h5v3.1l-2.7.6Z"/>
      <path class="st2" d="M95.9,116v-3.1l2.2-.5v-10.6l-2.5-.5v-3.1h7.8v14.2l2.2.5v3.1h-9.7ZM97.9,94.6v-4.3h5.4v4.3h-5.4Z"/>
      <path class="st2" d="M106.7,116v-3.1l2.2-.5v-18.4l-2.6-.5v-3.1h7.8v22.1l2.2.5v3.1h-9.7Z"/>
      <path class="st2" d="M117.5,116v-3.1l2.2-.5v-18.4l-2.6-.5v-3.1h7.8v22.1l2.2.5v3.1h-9.7Z"/>
      <path class="st2" d="M15.8,145v-3l2.1-.5v-10.2h-2.5v-3.6h2.5v-1.8c0-2,.6-3.5,1.7-4.6,1.2-1.1,2.8-1.6,4.9-1.6s1.1,0,1.7.1c.6,0,1.1.2,1.5.3l-.4,3.8c-.3,0-.6-.1-.9-.2-.3,0-.7,0-1,0-.8,0-1.4.2-1.7.6-.4.4-.6.9-.6,1.6v1.8h4v3.6h-4v10.2l3.1.5v3h-10.4Z"/>
      <path class="st2" d="M33.7,152c-.4,0-.9,0-1.4-.1-.5,0-.9-.2-1.4-.3l.6-3.7c.2,0,.4,0,.6.1.2,0,.4,0,.6,0,.7,0,1.3-.2,1.8-.5.5-.3.9-.8,1-1.4l.3-.8-5.7-14.3-2.2-.3v-3h9.8v3l-2.1.3,2.5,7.3.2.6h0l3-7.9-2-.3v-3h9v3l-2,.3-6.5,16.6c-.3.8-.7,1.5-1.2,2.2-.5.7-1.2,1.2-2,1.6-.8.4-1.8.6-3,.6Z"/>
      <path class="st2" d="M50.1,145v-3l2.1-.5v-10.3l-2.4-.5v-3h7.2l.2,2.1v.4c.4-1,.9-1.7,1.5-2.2.6-.5,1.3-.7,2.2-.7s.5,0,.9,0c.3,0,.6.1.9.2l-.5,4.7h-2.4c-.6-.1-1.1,0-1.5.1-.4.2-.7.5-1,.9v8.1l2.1.5v3h-9.4Z"/>
      <path class="st2" d="M64.1,145v-3l2.1-.5v-10.3l-2.4-.5v-3h7.6v13.8l2.1.5v3h-9.4ZM66.1,124.2v-4.2h5.3v4.2h-5.3Z"/>
      <path class="st2" d="M75.3,145v-3l2.1-.5v-10.3l-2.4-.5v-3h7.2l.2,2.1v.4c.4-1,.9-1.7,1.5-2.2.6-.5,1.3-.7,2.2-.7s.5,0,.9,0c.3,0,.6.1.9.2l-.5,4.7h-2.4c-.6-.1-1.1,0-1.5.1-.4.2-.7.5-1,.9v8.1l2.1.5v3h-9.4Z"/>
      <path class="st2" d="M97,145v-3l2.5-.6v-16.1l-2.5-.6v-3h10.6c2.1,0,3.9.5,5.5,1.5,1.6,1,2.9,2.3,3.8,4.1.9,1.7,1.4,3.7,1.4,5.9v.4c0,2.2-.4,4.2-1.3,5.9-.9,1.7-2.1,3.1-3.7,4.1-1.6,1-3.4,1.5-5.5,1.5h-10.6ZM104.6,141.1h2.7c1.2,0,2.3-.3,3.1-1,.8-.6,1.5-1.5,1.9-2.7.4-1.1.7-2.4.7-3.9v-.4c0-1.5-.2-2.8-.7-3.9-.4-1.1-1.1-2-1.9-2.7-.8-.6-1.9-1-3.1-1h-2.7v15.5Z"/>
      <path class="st2" d="M120.2,145v-3l2.5-.5v-16.2l-2.5-.5v-3h9.9v3l-2.3.5v16.2l2.3.5v3h-9.9ZM126.6,139.6l-2.6-3,11.5-11.6h0s-2.5-.2-2.5-.2v-3h10.2v3l-2.2.4-14.5,14.4ZM133.5,145v-3l2.3-.2h0l-5.8-7.9,3.5-3.3,8.2,11,2.3.4v3h-10.5Z"/>
    </g>
  </g>
  <g id="Layer_2">
    <path class="st3" d="M75,24.1c-5.1,19.3-10.2,38.9-15.3,58.2l-38.7-10.2"/>
    <polyline class="st4" points="32.4 26.9 46.4 30.6 49.5 19"/>
    <g>
      <path class="st2" d="M59.1,81.6l-41.6-10.9,12.5-47.7,17.3-9.6,27.8,7.3-16,60.9ZM21.2,68.6l35.8,9.4,14.5-55.1-23.8-6.3-15.1,8.4-11.5,43.5Z"/>
      <polygon class="st2" points="45.9 30.3 31 26.4 31.8 23.5 43.8 26.7 46.9 15.1 49.8 15.8 45.9 30.3"/>
      <rect class="st2" x="45.8" y="28.5" width="3" height="29.7" transform="translate(-6.6 78) rotate(-75.3)"/>
      <rect class="st2" x="44.3" y="33.7" width="3" height="29.7" transform="translate(-12.9 80.5) rotate(-75.3)"/>
      <rect class="st2" x="42.8" y="39" width="3" height="29.7" transform="translate(-19.1 83) rotate(-75.3)"/>
      <rect class="st2" x="41.3" y="44.3" width="3" height="29.7" transform="translate(-25.3 85.4) rotate(-75.3)"/>
      <rect class="st2" x="48.9" y="60.9" width="3" height="11.9" transform="translate(-27 98.6) rotate(-75.3)"/>
      <rect class="st2" x="57.6" y="19.1" width="3" height="15.4" transform="translate(18.2 77.1) rotate(-75.3)"/>
      <rect class="st2" x="56.2" y="24.3" width="3" height="15.4" transform="translate(12 79.7) rotate(-75.3)"/>
    </g>
  </g>
</svg>